<svg width="67" height="67" viewBox="0 0 67 67" fill="none" xmlns="http://www.w3.org/2000/svg">
<g clip-path="url(#clip0_104_81413)">
<path d="M33.2934 66.9256C51.4047 66.9256 66.0868 51.9438 66.0868 33.4628C66.0868 14.9818 51.4047 0 33.2934 0C15.1821 0 0.5 14.9818 0.5 33.4628C0.5 51.9438 15.1821 66.9256 33.2934 66.9256Z" fill="#303030"/>
<path d="M19.2412 27.3355V34.6992C19.2412 36.6271 22.1835 36.635 22.1835 34.6992V27.3355C22.1835 25.4077 19.2412 25.3998 19.2412 27.3355Z" fill="white"/>
<path d="M43.5225 27.3355V34.6992C43.5225 36.6271 46.4648 36.635 46.4648 34.6992V27.3355C46.4648 25.4077 43.5225 25.3998 43.5225 27.3355Z" fill="white"/>
<path d="M25.3113 21.4488V40.3873C25.3113 42.3151 28.2535 42.323 28.2535 40.3873V21.4488C28.2535 19.521 25.3113 19.5131 25.3113 21.4488Z" fill="white"/>
<path d="M37.4524 21.4488V40.3873C37.4524 42.3151 40.3947 42.323 40.3947 40.3873V21.4488C40.3947 19.521 37.4524 19.5131 37.4524 21.4488Z" fill="white"/>
<path d="M31.3818 26.6393V45.5777C31.3818 47.5055 34.3241 47.5134 34.3241 45.5777V26.6393C34.3241 24.7114 31.3818 24.7035 31.3818 26.6393Z" fill="white"/>
</g>
<defs>
<clipPath id="clip0_104_81413">
<rect width="67" height="67" fill="white"/>
</clipPath>
</defs>
</svg>
